<mxfile host="app.diagrams.net" modified="2023-08-15T07:06:27.143Z" agent="Mozilla/5.0 (X11; Linux x86_64) AppleWebKit/537.36 (KHTML, like Gecko) Chrome/115.0.0.0 Safari/537.36" version="21.6.5" etag="1FFeDG5QxjWXcWuSv08E" type="github">
  <diagram name="Page-1" id="JuzGIt5wktLAI_fdATW8">
    <mxGraphModel>
      <root>
        <mxCell id="0" />
        <mxCell id="1" parent="0" />
      </root>
    </mxGraphModel>
  </diagram>
</mxfile>
